<?xml version="1.0" encoding="iso-8859-1"?>
<!-- Generator: Adobe Illustrator 19.0.0, SVG Export Plug-In . SVG Version: 6.00 Build 0)  -->
<svg version="1.1" id="Layer_1" xmlns="http://www.w3.org/2000/svg" xmlns:xlink="http://www.w3.org/1999/xlink" x="0px" y="0px"
	 viewBox="0 0 499.999 499.999" style="enable-background:new 0 0 499.999 499.999;" xml:space="preserve">
<g>
	<polygon style="fill:#FFF9E6;" points="230.207,423.821 65.559,423.821 47.265,312.701 278.314,312.701 	"/>
	<circle style="fill:#5CC9C1;" cx="66.237" cy="469.916" r="15.584"/>
	<circle style="fill:#5CC9C1;" cx="213.268" cy="469.916" r="15.584"/>
	<g>
		<path d="M432.195,72.305C388.47,28.58,330.335,4.5,268.499,4.5s-119.97,24.08-163.695,67.805S36.999,174.164,36.999,236
			c0,5.523,4.478,10,10,10s10-4.477,10-10c0-4.118,12.008-17.549,63.151-28.755c-0.758,9.538-1.151,19.163-1.151,28.755
			c0,6.669,0.187,13.416,0.554,20.052c0.294,5.327,4.705,9.448,9.976,9.448c0.186,0,0.373-0.005,0.562-0.016
			c5.514-0.305,9.737-5.023,9.432-10.537c-0.348-6.27-0.524-12.645-0.524-18.947c0-10.929,0.535-21.899,1.575-32.713
			c20.022-3.425,42.619-6.051,66.3-7.699c-0.575,13.299-0.875,26.84-0.875,40.412c0,7.245,0.083,14.555,0.248,21.729
			c0.124,5.444,4.576,9.771,9.992,9.771c0.078,0,0.156-0.001,0.234-0.002c5.521-0.126,9.895-4.705,9.768-10.227
			c-0.16-7.022-0.242-14.179-0.242-21.271c0-13.969,0.331-27.893,0.953-41.546c27.318-1.24,55.777-1.24,83.094,0
			c0.622,13.653,0.953,27.577,0.953,41.546c0,7.092-0.082,14.249-0.242,21.271c-0.127,5.521,4.247,10.1,9.768,10.227
			c0.078,0.001,0.156,0.002,0.234,0.002c5.416,0,9.868-4.328,9.992-9.771c0.165-7.174,0.248-14.484,0.248-21.729
			c0-13.572-0.3-27.113-0.875-40.412c23.68,1.649,46.278,4.275,66.3,7.699c1.04,10.815,1.575,21.784,1.575,32.713
			c0,10.93-0.535,21.902-1.575,32.718c-16.372,2.806-34.253,5.053-53.28,6.687c-5.503,0.473-9.58,5.316-9.107,10.819
			c0.447,5.211,4.815,9.145,9.951,9.145c0.287,0,0.577-0.012,0.867-0.037c17.284-1.485,33.671-3.468,48.92-5.907
			c-3.217,20.028-8.221,39.092-14.946,56.866c-16.72,6.326-34.693,11.187-53.525,14.426c-5.442,0.937-9.096,6.108-8.16,11.551
			c0.838,4.87,5.064,8.306,9.844,8.306c0.563,0,1.134-0.047,1.707-0.146c13.486-2.32,26.583-5.419,39.157-9.255
			C343.262,419.37,307.148,447.5,268.5,447.5c-5.522,0-10,4.477-10,10s4.478,10,10,10c61.836,0,119.971-24.08,163.695-67.805
			S499.999,297.836,499.999,236S475.919,116.029,432.195,72.305z M464.083,155.538c-17.604-17.885-41.228-33.362-69.863-45.259
			c-11.896-28.635-27.373-52.259-45.258-69.863C400.972,61.893,442.607,103.529,464.083,155.538z M207.968,175.469
			c-23.132,1.531-44.822,3.91-64.744,7.102c3.219-20.038,8.227-39.109,14.956-56.89c17.78-6.728,36.851-11.736,56.89-14.955
			C211.879,130.647,209.5,152.337,207.968,175.469z M237.275,30.772c-7.17,14.096-13.33,33.853-18.45,59.168
			c-17.227,2.409-33.844,6.05-49.677,10.885C186.952,65.929,210.798,41.565,237.275,30.772z M268.499,24.5
			c4.119,0,17.55,12.008,28.755,63.153c-19.055-1.51-38.456-1.51-57.511,0C250.949,36.508,264.381,24.5,268.499,24.5z
			 M367.851,100.826c-15.833-4.835-32.45-8.476-49.677-10.885c-5.12-25.316-11.28-45.073-18.45-59.169
			C326.2,41.565,350.047,65.929,367.851,100.826z M329.03,175.469c-1.531-23.133-3.91-44.822-7.102-64.744
			c20.038,3.219,39.11,8.227,56.89,14.955c6.729,17.781,11.737,36.853,14.956,56.89C373.852,179.379,352.162,177.001,329.03,175.469
			z M403.674,136.649c34.897,17.804,59.26,41.651,70.053,68.127c-14.096-7.169-33.852-13.33-59.168-18.449
			C412.151,169.1,408.51,152.483,403.674,136.649z M479.999,236c0,4.118-12.008,17.549-63.151,28.755
			c0.759-9.538,1.151-19.162,1.151-28.755s-0.392-19.217-1.151-28.755C467.991,218.451,479.999,231.882,479.999,236z
			 M473.727,267.225c-10.793,26.476-35.156,50.323-70.053,68.127c4.835-15.834,8.477-32.452,10.885-49.678
			C439.875,280.554,459.632,274.394,473.727,267.225z M188.036,40.417c-17.885,17.604-33.362,41.228-45.258,69.863
			c-28.635,11.896-52.259,27.373-69.863,45.259C94.392,103.529,136.027,61.893,188.036,40.417z M133.324,136.649
			c-4.835,15.834-8.477,32.452-10.885,49.678c-25.316,5.12-45.072,11.28-59.168,18.449
			C74.064,178.299,98.428,154.453,133.324,136.649z M228.087,174.376c1.649-23.681,4.275-46.278,7.7-66.3
			c21.612-2.074,43.813-2.074,65.425,0c3.425,20.022,6.051,42.619,7.7,66.3C282.303,173.23,254.695,173.23,228.087,174.376z
			 M348.962,431.583c17.885-17.604,33.362-41.228,45.258-69.863c28.635-11.896,52.259-27.373,69.863-45.259
			C442.607,368.472,400.972,410.107,348.962,431.583z"/>
		<path d="M55.692,425.445c0.795,4.831,4.972,8.375,9.867,8.375h164.647c3.987,0,7.593-2.368,9.177-6.027l48.107-111.12
			c1.338-3.091,1.03-6.647-0.818-9.463c-1.849-2.815-4.99-4.51-8.358-4.51H55.754l-4.041-24.549c-0.79-4.798-4.918-8.333-9.78-8.375
			L10.087,269.5c-0.03,0-0.06,0-0.089,0c-5.482,0-9.95,4.42-9.998,9.914c-0.048,5.522,4.391,10.038,9.913,10.086l23.432,0.203
			L55.692,425.445z M223.639,413.82H74.047l-2.851-17.32h116.711c5.522,0,10-4.477,10-10s-4.478-10-10-10H67.903l-2.634-16h115.295
			c5.522,0,10-4.477,10-10s-4.478-10-10-10H61.977l-2.93-17.799h204.041L223.639,413.82z"/>
		<path d="M66.237,444.332c-14.107,0-25.584,11.477-25.584,25.584S52.129,495.5,66.237,495.5s25.584-11.477,25.584-25.584
			S80.344,444.332,66.237,444.332z M66.237,475.5c-3.079,0-5.584-2.505-5.584-5.584s2.505-5.584,5.584-5.584
			c3.079,0,5.584,2.505,5.584,5.584S69.316,475.5,66.237,475.5z"/>
		<path d="M213.268,444.332c-14.107,0-25.584,11.477-25.584,25.584s11.477,25.584,25.584,25.584s25.584-11.477,25.584-25.584
			S227.375,444.332,213.268,444.332z M213.268,475.5c-3.079,0-5.584-2.505-5.584-5.584s2.505-5.584,5.584-5.584
			s5.584,2.505,5.584,5.584S216.347,475.5,213.268,475.5z"/>
		<path d="M214.841,360.5h8.473c5.522,0,10-4.477,10-10s-4.478-10-10-10h-8.473c-5.522,0-10,4.477-10,10
			S209.319,360.5,214.841,360.5z"/>
	</g>
</g>
<g>
</g>
<g>
</g>
<g>
</g>
<g>
</g>
<g>
</g>
<g>
</g>
<g>
</g>
<g>
</g>
<g>
</g>
<g>
</g>
<g>
</g>
<g>
</g>
<g>
</g>
<g>
</g>
<g>
</g>
</svg>
