<?xml version="1.0" encoding="iso-8859-1"?>
<!-- Generator: Adobe Illustrator 19.0.0, SVG Export Plug-In . SVG Version: 6.00 Build 0)  -->
<svg version="1.1" id="Layer_1" xmlns="http://www.w3.org/2000/svg" xmlns:xlink="http://www.w3.org/1999/xlink" x="0px" y="0px"
	 viewBox="0 0 427.286 427.286" style="enable-background:new 0 0 427.286 427.286;" xml:space="preserve" fill="#90c7ac">
<g>
	<g>
		<path d="M395.579,50.143H31.707C14.224,50.143,0,64.366,0,81.85v214.558c0,17.483,14.224,31.707,31.707,31.707H171.54
			l-10.559,34.028h-11.072c-4.142,0-7.5,3.358-7.5,7.5c0,4.142,3.358,7.5,7.5,7.5h16.597h100.966h16.597c4.143,0,7.5-3.358,7.5-7.5
			c0-4.142-3.357-7.5-7.5-7.5h-11.071l-10.559-34.028h133.14c17.483,0,31.707-14.224,31.707-31.707V81.85
			C427.286,64.366,413.062,50.143,395.579,50.143z M176.686,362.143l10.559-34.028h59.487l10.56,34.028H176.686z M412.286,296.408
			c0,9.212-7.495,16.707-16.707,16.707h-143.32H181.72H31.707c-9.212,0-16.707-7.495-16.707-16.707v-10.886h397.286V296.408z
			 M412.286,270.522H15V81.85c0-9.212,7.495-16.707,16.707-16.707h363.872c9.212,0,16.707,7.495,16.707,16.707V270.522z"/>
	</g>
</g>
<g>
	<g>
		<path d="M185.879,197.248c-13.872,0-25.158,11.286-25.158,25.157c0,13.872,11.286,25.158,25.158,25.158
			s25.158-11.286,25.158-25.158C211.037,208.534,199.751,197.248,185.879,197.248z M185.879,232.563
			c-5.601,0-10.158-4.557-10.158-10.158c0-5.601,4.557-10.157,10.158-10.157c5.601,0,10.158,4.557,10.158,10.157
			C196.037,228.007,191.48,232.563,185.879,232.563z"/>
	</g>
</g>
<g>
	<g>
		<path d="M250.646,197.248c-13.872,0-25.157,11.286-25.157,25.157c0,13.872,11.285,25.158,25.157,25.158
			s25.157-11.286,25.157-25.158C275.803,208.534,264.518,197.248,250.646,197.248z M250.646,232.563
			c-5.601,0-10.157-4.557-10.157-10.158c0-5.601,4.557-10.157,10.157-10.157s10.157,4.557,10.157,10.157
			C260.803,228.007,256.247,232.563,250.646,232.563z"/>
	</g>
</g>
<g>
	<g>
		<path d="M288.077,113.811c-1.425-1.631-3.484-2.567-5.649-2.567H165.206l-2.382-14.372c-0.6-3.619-3.73-6.274-7.399-6.274h-29.566
			c-4.142,0-7.5,3.358-7.5,7.5c0,4.142,3.357,7.499,7.499,7.499h23.207l2.364,14.262l9.426,69.326c0.505,3.718,3.68,6.49,7.432,6.49
			h104.7c3.752,0,6.926-2.772,7.432-6.49l9.44-69.431C290.151,117.608,289.501,115.441,288.077,113.811z M266.438,180.674h-91.602
			l-7.401-54.431h106.403L266.438,180.674z"/>
	</g>
</g>
<g>
</g>
<g>
</g>
<g>
</g>
<g>
</g>
<g>
</g>
<g>
</g>
<g>
</g>
<g>
</g>
<g>
</g>
<g>
</g>
<g>
</g>
<g>
</g>
<g>
</g>
<g>
</g>
<g>
</g>
</svg>
